<svg width="57" height="57" viewBox="0 0 57 57" fill="none" xmlns="http://www.w3.org/2000/svg">
<path d="M47.7413 24.6954L43.4986 24.6954C43.64 25.5439 43.7108 26.3217 43.7815 27.0995C43.7815 27.6652 43.4986 28.2309 43.1451 28.5845C42.6501 29.0794 41.8016 29.0794 41.3066 28.5845L37.3468 24.6247H32.1142L32.1142 19.3921L28.1544 15.4323C27.6594 14.9373 27.6594 14.0888 28.1544 13.5938C28.5787 13.1695 29.0736 12.9574 29.6393 12.9574C30.4879 12.9574 31.2657 13.0281 32.0435 13.2402L32.0435 8.99761C32.0435 8.2905 32.6799 7.6541 33.4577 7.58339C34.3062 7.58339 34.9426 8.21979 34.8719 8.99761L34.8719 14.0888C36.569 14.7959 38.1953 15.8565 39.5388 17.2C40.953 18.6143 41.943 20.1699 42.6501 21.867L47.7413 21.8669C48.5191 21.7962 49.2262 22.5033 49.1555 23.2812C49.1555 23.9883 48.5191 24.6247 47.7413 24.6954Z" fill="#484848" fill-opacity="0.7"/>
<path fill-rule="evenodd" clip-rule="evenodd" d="M28.0016 18.2081L27.0117 17.2181C25.8096 16.016 24.254 15.4503 22.7691 15.3796L22.7691 11.137C22.7691 10.2885 22.1327 9.65206 21.3548 9.72278C20.5063 9.72278 19.9406 10.2885 19.9406 11.137L19.9406 16.0867C19.3749 16.3696 18.8093 16.7938 18.3143 17.2888L15.203 20.4001L12.1625 17.3595C11.5968 16.7938 10.7482 16.7938 10.1826 17.3595C9.61687 17.9252 9.61687 18.7737 10.1826 19.3394L13.2231 22.38L12.1625 23.4406C11.2432 24.3599 10.6068 25.4205 10.2533 26.6226H4.59641C3.74788 26.6226 3.11149 27.259 3.1822 28.0368C3.1822 28.4611 3.32362 28.7439 3.60646 29.0268C3.88931 29.3096 4.17215 29.4511 4.59641 29.4511L9.97042 29.4511C9.97042 29.7339 10.0411 29.946 10.0411 30.2289L11.3139 38.007C11.3846 38.502 11.6675 39.0677 12.021 39.4213C13.011 40.4112 14.708 40.4112 15.698 39.4213L28.1431 26.9762C30.4765 24.5013 30.4058 20.6122 28.0016 18.2081ZM22.7691 24.9963C21.9912 25.2084 21.1427 24.9256 20.577 24.3599C20.2942 24.077 20.1528 23.7942 20.0113 23.5114C19.7992 23.0164 19.7992 22.4507 20.0113 21.8143C20.1528 21.5315 20.2942 21.2486 20.577 20.9658C21.2134 20.3294 22.0619 20.188 22.9105 20.3294C23.3347 20.4708 23.6883 20.6829 23.9711 20.9658C24.8904 21.885 24.8904 23.4406 23.9711 24.3599C23.6176 24.7134 23.1933 24.8549 22.7691 24.9963Z" fill="#30E192"/>
<path fill-rule="evenodd" clip-rule="evenodd" d="M39.4569 44.5126L36.3457 41.4013L39.4569 38.29C39.9519 37.7951 40.3054 37.3001 40.5176 36.8051L45.6087 36.8051C46.3866 36.7344 46.9523 36.1687 47.023 35.3909C47.023 34.5424 46.3866 33.906 45.6087 33.9767L41.2247 33.9767C41.2247 32.421 40.5883 30.7947 39.3862 29.5926L38.3963 28.6027C35.9921 26.1985 32.0323 26.1985 29.6281 28.6027L17.1831 41.0477C16.1931 42.0377 16.1931 43.7348 17.1831 44.7247C17.5366 45.0783 18.1023 45.3611 18.5973 45.4318L26.3754 46.7046C26.6583 46.7046 27.0118 46.7753 27.224 46.846L27.224 52.3615C27.224 52.7857 27.3654 53.0686 27.6482 53.3514C27.9311 53.6342 28.2139 53.7757 28.6382 53.7757C29.3453 53.7757 29.9817 53.1393 30.0524 52.3615L30.0524 46.4218C31.1838 45.9975 32.2444 45.3611 33.093 44.5126L34.1536 43.4519L37.2649 46.5632C37.8306 47.1289 38.6791 47.1289 39.2448 46.5632C40.0226 45.9268 40.0226 45.0783 39.4569 44.5126ZM27.3654 41.8963C27.224 41.7549 27.0118 41.6841 26.9411 41.6134C26.1633 40.8356 26.1633 39.5628 26.9411 38.785C27.0825 38.6436 27.224 38.5022 27.3654 38.5022C27.9311 38.2193 28.7089 38.1486 29.2746 38.4315C29.4867 38.5022 29.6281 38.6436 29.8403 38.8557C29.9817 38.9971 30.1938 39.2093 30.2645 39.4214C30.5474 39.9871 30.4767 40.6235 30.2645 41.1185C30.1938 41.3306 30.0524 41.472 29.8403 41.6841C29.1332 42.2498 28.2139 42.3205 27.3654 41.8963ZM35.0021 36.8051C34.5072 37.0172 33.8001 37.0172 33.3051 36.8051C32.9515 36.7344 32.6687 36.4516 32.4566 36.2394C31.8202 35.603 31.608 34.6838 31.8202 33.906C31.9616 33.4817 32.1737 33.1282 32.4566 32.8453C33.3758 31.9261 34.9314 31.9261 35.8507 32.8453C36.1335 33.1282 36.4164 33.5524 36.4871 33.906C36.6992 34.6838 36.4871 35.603 35.8507 36.2394C35.5678 36.5223 35.285 36.6637 35.0021 36.8051Z" fill="#FF5A6B"/>
</svg>
